<?xml version="1.0" encoding="UTF-8"?>
<svg width="150px" height="150px" viewBox="0 0 150 150" version="1.1" xmlns="http://www.w3.org/2000/svg" xmlns:xlink="http://www.w3.org/1999/xlink">
    <!-- Generator: Sketch 61.2 (89653) - https://sketch.com -->
    <title>logo</title>
    <desc>Created with Sketch.</desc>
    <g id="logo" stroke="none" stroke-width="1" fill="none" fill-rule="evenodd">
        <circle id="Oval" fill="#FFFFFF" cx="75" cy="75" r="75"></circle>
        <path d="M76.1825397,72.7880184 C67.3253968,78.2626728 57.2380952,81 47.1507937,81 C43.7063492,81 41,78.2626728 41,74.7788018 C41,71.2949309 43.7063492,68.5576037 47.1507937,68.5576037 C70.2777778,68.5576037 89.2222222,50.1428571 90.452381,27 L103,27 C102.015873,45.9124424 92.1746032,62.8341014 76.1825397,72.7880184 M103,122 L90.6363636,122 C89.6666667,104.445055 78.5151515,89.6098901 63,83.4285714 C63.2424242,83.4285714 63.2424242,83.4285714 63.4848485,83.1813187 C63.7272727,83.1813187 64.2121212,82.9340659 64.4545455,82.9340659 C64.6969697,82.9340659 64.9393939,82.6868132 65.4242424,82.6868132 C65.6666667,82.6868132 66.1515152,82.4395604 66.3939394,82.4395604 C66.6363636,82.4395604 66.8787879,82.1923077 67.3636364,82.1923077 C67.6060606,82.1923077 68.0909091,81.9450549 68.3333333,81.6978022 C68.5757576,81.6978022 68.8181818,81.4505495 69.3030303,81.4505495 C69.5454545,81.2032967 70.030303,81.2032967 70.2727273,80.956044 C70.5151515,80.956044 70.7575758,80.7087912 71.2424242,80.7087912 C71.4848485,80.4615385 71.969697,80.4615385 72.2121212,80.2142857 C72.4545455,79.967033 72.6969697,79.967033 72.9393939,79.7197802 C73.1818182,79.4725275 73.6666667,79.4725275 73.9090909,79.2252747 C74.1515152,78.978022 74.3939394,78.978022 74.6363636,78.7307692 C74.8787879,78.4835165 75.3636364,78.4835165 75.6060606,78.2362637 C75.8484848,77.989011 76.0909091,77.989011 76.3333333,77.7417582 C76.5757576,77.4945055 77.0606061,77.4945055 77.3030303,77.2472527 C77.3030303,77.2472527 77.5454545,77.2472527 77.5454545,77 C93.0606061,87.1373626 102.272727,103.703297 103,122 M108,24.4881517 L108,22 L86.2103448,22 L86.2103448,24.4881517 C86.2103448,46.1350711 68.8275862,63.5521327 47.7724138,63.5521327 C41.6517241,63.5521327 37,68.528436 37,74.5 C37,80.471564 41.8965517,85.4478673 47.7724138,85.4478673 C69.0724138,85.4478673 86.2103448,103.113744 86.2103448,124.511848 L86.2103448,127 L108,127 L108,124.511848 C108,104.35782 98.4517241,85.9454976 82.2931034,74.2511848 C98.4517241,63.0545024 108,44.6421801 108,24.4881517" id="Shape" fill="#00004B" fill-rule="nonzero"></path>
    </g>
</svg>